<svg xmlns="http://www.w3.org/2000/svg" id="uuid-251cf4a6-8022-406e-9d5f-7f673e025741" data-name="Layer 1" width="595.276" height="247.785" viewBox="0 0 595.276 247.785">
  <defs>
    <style>
      .uuid-cf056d64-4ee3-4fbf-aab9-91072f7fa848 {
        fill: #e6e6e6;
      }

      .uuid-930934fc-1eba-4013-a3fb-a59d64282e38 {
        fill: #97be43;
      }

      .uuid-de08627d-3e5d-4c6a-bcba-7385626f468b {
        fill: #539a43;
      }

      .uuid-c667acce-d1f5-48c0-92ea-1c07dbb26464 {
        fill: #fff;
      }

      .uuid-b2f590ea-6f16-4bdc-bb95-109129152a75 {
        fill: none;
        stroke: #000;
        stroke-miterlimit: 10;
      }

      .uuid-2b2346f3-0c36-4eaa-99d0-f933a3e397ff {
        fill: #4284c3;
      }
    </style>
  </defs>
  <rect class="uuid-cf056d64-4ee3-4fbf-aab9-91072f7fa848" x="11.369" y="10.807" width="575.515" height="227.981"/>
  <rect class="uuid-c667acce-d1f5-48c0-92ea-1c07dbb26464" x="19.319" y="17.459" width="119.713" height="212.289"/>
  <rect class="uuid-c667acce-d1f5-48c0-92ea-1c07dbb26464" x="147.808" y="17.459" width="119.713" height="212.289"/>
  <rect class="uuid-c667acce-d1f5-48c0-92ea-1c07dbb26464" x="276.296" y="17.459" width="119.713" height="212.289"/>
  <rect class="uuid-c667acce-d1f5-48c0-92ea-1c07dbb26464" x="404.785" y="17.459" width="173.312" height="212.289"/>
  <g>
    <path d="M31.86,31.063h-1.177v-1.375h1.177v-.748c0-1.354.803-2.091,2.266-2.091.308,0,.715.044.946.11v1.463c-.319-.055-.484-.065-.682-.065-.506,0-.748.198-.748.616v.715h1.43v1.375h-1.43v4.302h-1.782v-4.302Z"/>
    <path d="M35.611,32.538c0-1.661,1.232-2.938,2.86-2.938,1.64,0,2.794,1.243,2.794,3.003v.386h-3.905c.165.638.682,1.066,1.331,1.066.473,0,.869-.165,1.122-.473l1.177.979c-.737.648-1.43.913-2.387.913-1.672,0-2.993-1.287-2.993-2.938ZM39.616,31.976c-.154-.604-.583-.99-1.155-.99-.561,0-.957.363-1.1.99h2.255Z"/>
    <path d="M42.112,33.737c0-1.046.814-1.65,2.211-1.65.407,0,.814.077,1.32.264v-.462c0-.55-.363-.825-1.122-.825-.429,0-.935.121-1.595.396l-.616-1.243c.935-.418,1.771-.616,2.607-.616,1.573,0,2.486.781,2.486,2.134v3.631h-1.76v-.495c-.495.418-.968.583-1.573.583-1.155,0-1.958-.704-1.958-1.716ZM44.621,34.276c.374,0,.715-.1,1.023-.286v-.727c-.33-.077-.649-.121-.979-.121-.583,0-.913.198-.913.562s.319.572.869.572Z"/>
    <path d="M49.329,33.649v-2.586h-1.101v-1.375h1.101v-1.573l1.782-.363v1.937h1.518v1.375h-1.518v2.233c0,.506.198.683.748.683.209,0,.374-.022.726-.121v1.44c-.33.1-.858.177-1.221.177-1.342,0-2.035-.616-2.035-1.826Z"/>
    <path d="M53.574,33.516v-3.828h1.782v3.312c0,.638.374,1.056.946,1.056.385,0,.693-.153.946-.473v-3.895h1.782v5.677h-1.782v-.924c-.44.66-1.056,1.012-1.793,1.012-1.1,0-1.881-.803-1.881-1.937Z"/>
    <path d="M60.416,29.688h1.783v1.287c.363-.946.869-1.397,1.54-1.397.253.012.374.033.594.144v1.529c-.22-.11-.528-.177-.836-.177-.528,0-1.012.275-1.298.704v3.587h-1.783v-5.677Z"/>
    <path d="M64.86,32.538c0-1.661,1.232-2.938,2.86-2.938,1.64,0,2.794,1.243,2.794,3.003v.386h-3.905c.165.638.682,1.066,1.331,1.066.473,0,.869-.165,1.122-.473l1.177.979c-.737.648-1.43.913-2.387.913-1.672,0-2.993-1.287-2.993-2.938ZM68.865,31.976c-.154-.604-.583-.99-1.155-.99-.561,0-.957.363-1.1.99h2.255Z"/>
    <path d="M74.496,27.664h1.694l-4.412,10.001h-1.705l4.422-10.001Z"/>
    <path d="M78.401,29.424l-1.518.627v-1.496l2.146-.892h1.067v7.701h-1.694v-5.94Z"/>
    <path d="M83.823,27.532l1.783-.275v3.157c.374-.462.99-.759,1.661-.759,1.397,0,2.508,1.287,2.508,2.883s-1.166,2.86-2.641,2.86c-.616,0-1.166-.265-1.551-.727v.693h-1.76v-7.833ZM88.026,32.526c0-.803-.583-1.396-1.353-1.396-.44,0-.781.153-1.067.462v1.893c.275.285.649.45,1.067.45.781,0,1.353-.594,1.353-1.408Z"/>
    <path d="M90.907,29.688h1.783v1.287c.363-.946.869-1.397,1.54-1.397.253.012.374.033.594.144v1.529c-.22-.11-.528-.177-.836-.177-.528,0-1.012.275-1.298.704v3.587h-1.783v-5.677Z"/>
    <path d="M95.396,33.737c0-1.046.814-1.65,2.211-1.65.407,0,.814.077,1.32.264v-.462c0-.55-.363-.825-1.122-.825-.429,0-.935.121-1.595.396l-.616-1.243c.935-.418,1.771-.616,2.607-.616,1.573,0,2.486.781,2.486,2.134v3.631h-1.76v-.495c-.495.418-.968.583-1.573.583-1.155,0-1.958-.704-1.958-1.716ZM97.904,34.276c.374,0,.715-.1,1.023-.286v-.727c-.33-.077-.649-.121-.979-.121-.583,0-.913.198-.913.562s.319.572.869.572Z"/>
    <path d="M102.028,29.688h1.783v.924c.44-.66,1.056-1.012,1.793-1.012,1.1,0,1.881.803,1.881,1.937v3.828h-1.782v-3.312c0-.638-.374-1.056-.946-1.056-.385,0-.693.153-.946.473v3.895h-1.783v-5.677Z"/>
    <path d="M108.573,32.538c0-1.661,1.276-2.938,2.938-2.938.935,0,1.793.374,2.365,1.045l-1.089,1.089c-.363-.429-.726-.616-1.21-.616-.704,0-1.232.605-1.232,1.42s.528,1.419,1.232,1.419c.484,0,.847-.188,1.21-.616l1.089,1.089c-.572.672-1.43,1.046-2.365,1.046-1.661,0-2.938-1.276-2.938-2.938Z"/>
    <path d="M114.755,27.532l1.783-.275v3.355c.44-.66,1.056-1.012,1.793-1.012,1.1,0,1.881.803,1.881,1.937v3.828h-1.782v-3.312c0-.638-.374-1.056-.946-1.056-.385,0-.693.153-.946.473v3.895h-1.783v-7.833Z"/>
  </g>
  <g>
    <path d="M196.367,29.688h1.783v.902c.418-.649.99-.99,1.683-.99.737,0,1.32.407,1.595,1.056.44-.682,1.078-1.056,1.859-1.056,1.045,0,1.782.825,1.782,1.991v3.773h-1.782v-3.422c0-.571-.341-.945-.847-.945-.33,0-.594.132-.825.429v3.938h-1.782v-3.422c0-.571-.341-.945-.847-.945-.33,0-.605.143-.836.439v3.928h-1.783v-5.677Z"/>
    <path d="M206.146,33.737c0-1.046.814-1.65,2.211-1.65.407,0,.814.077,1.32.264v-.462c0-.55-.363-.825-1.122-.825-.429,0-.935.121-1.595.396l-.616-1.243c.935-.418,1.771-.616,2.607-.616,1.573,0,2.486.781,2.486,2.134v3.631h-1.76v-.495c-.495.418-.968.583-1.573.583-1.155,0-1.958-.704-1.958-1.716ZM208.655,34.276c.374,0,.715-.1,1.023-.286v-.727c-.33-.077-.649-.121-.979-.121-.583,0-.913.198-.913.562s.319.572.869.572Z"/>
    <path d="M212.669,27.818c0-.55.451-1.001,1.001-1.001s1.001.451,1.001,1.001-.451,1.001-1.001,1.001-1.001-.451-1.001-1.001ZM212.779,29.688h1.783v5.677h-1.783v-5.677Z"/>
    <path d="M215.947,29.688h1.783v.924c.44-.66,1.056-1.012,1.793-1.012,1.1,0,1.881.803,1.881,1.937v3.828h-1.782v-3.312c0-.638-.374-1.056-.946-1.056-.385,0-.693.153-.946.473v3.895h-1.783v-5.677Z"/>
  </g>
  <g>
    <path d="M284.809,32.538c0-1.661,1.276-2.938,2.938-2.938.935,0,1.793.374,2.365,1.045l-1.089,1.089c-.363-.429-.726-.616-1.21-.616-.704,0-1.232.605-1.232,1.42s.528,1.419,1.232,1.419c.484,0,.847-.188,1.21-.616l1.089,1.089c-.572.672-1.43,1.046-2.365,1.046-1.661,0-2.938-1.276-2.938-2.938Z"/>
    <path d="M290.572,32.538c0-1.673,1.276-2.938,2.959-2.938s2.959,1.265,2.959,2.938-1.276,2.938-2.959,2.938-2.959-1.266-2.959-2.938ZM294.753,32.538c0-.848-.506-1.452-1.221-1.452s-1.221.604-1.221,1.452.506,1.452,1.221,1.452,1.221-.605,1.221-1.452Z"/>
    <path d="M297.624,29.688h1.783v.902c.418-.649.989-.99,1.683-.99.737,0,1.32.407,1.596,1.056.439-.682,1.078-1.056,1.859-1.056,1.045,0,1.782.825,1.782,1.991v3.773h-1.782v-3.422c0-.571-.342-.945-.848-.945-.33,0-.594.132-.825.429v3.938h-1.782v-3.422c0-.571-.341-.945-.847-.945-.33,0-.605.143-.836.439v3.928h-1.783v-5.677Z"/>
    <path d="M307.666,29.688h1.783v.902c.418-.649.989-.99,1.683-.99.737,0,1.32.407,1.596,1.056.439-.682,1.078-1.056,1.859-1.056,1.045,0,1.782.825,1.782,1.991v3.773h-1.782v-3.422c0-.571-.342-.945-.848-.945-.33,0-.594.132-.825.429v3.938h-1.782v-3.422c0-.571-.341-.945-.847-.945-.33,0-.605.143-.836.439v3.928h-1.783v-5.677Z"/>
    <path d="M317.599,27.818c0-.55.451-1.001,1.001-1.001s1.002.451,1.002,1.001-.451,1.001-1.002,1.001-1.001-.451-1.001-1.001ZM317.709,29.688h1.782v5.677h-1.782v-5.677Z"/>
    <path d="M321.625,33.649v-2.586h-1.101v-1.375h1.101v-1.573l1.782-.363v1.937h1.519v1.375h-1.519v2.233c0,.506.198.683.748.683.209,0,.374-.022.727-.121v1.44c-.33.1-.858.177-1.222.177-1.342,0-2.035-.616-2.035-1.826Z"/>
    <path d="M328.28,27.532l1.782-.275v3.355c.44-.66,1.057-1.012,1.793-1.012,1.101,0,1.882.803,1.882,1.937v3.828h-1.782v-3.312c0-.638-.374-1.056-.946-1.056-.385,0-.693.153-.946.473v3.895h-1.782v-7.833Z"/>
    <path d="M334.814,33.737c0-1.046.813-1.65,2.211-1.65.407,0,.814.077,1.32.264v-.462c0-.55-.363-.825-1.122-.825-.43,0-.936.121-1.596.396l-.616-1.243c.936-.418,1.771-.616,2.607-.616,1.573,0,2.486.781,2.486,2.134v3.631h-1.76v-.495c-.495.418-.969.583-1.573.583-1.155,0-1.958-.704-1.958-1.716ZM337.322,34.276c.374,0,.715-.1,1.023-.286v-.727c-.33-.077-.649-.121-.979-.121-.583,0-.913.198-.913.562s.319.572.869.572Z"/>
    <path d="M340.984,34.782l.781-1.188c.814.43,1.276.572,1.826.572.506,0,.814-.176.814-.462,0-.22-.165-.341-.528-.407l-1.089-.198c-1.101-.209-1.672-.77-1.672-1.65,0-1.154.891-1.848,2.376-1.848.792,0,1.573.22,2.311.648l-.814,1.134c-.572-.33-1.101-.484-1.628-.484-.43,0-.683.144-.683.385,0,.231.144.33.583.407l1.067.198c1.122.209,1.705.781,1.705,1.64,0,1.11-1.045,1.947-2.442,1.947-1.034,0-1.947-.242-2.607-.693Z"/>
    <path d="M347.067,27.532l1.783-.275v3.355c.439-.66,1.056-1.012,1.793-1.012,1.1,0,1.881.803,1.881,1.937v3.828h-1.782v-3.312c0-.638-.374-1.056-.946-1.056-.385,0-.692.153-.945.473v3.895h-1.783v-7.833Z"/>
  </g>
  <g>
    <path d="M284.769,88.423c0-.8.62-1.479,1.499-1.709-.75-.25-1.259-.85-1.259-1.55,0-1.099,1.009-1.919,2.359-1.919s2.358.82,2.358,1.919c0,.7-.51,1.3-1.259,1.55.879.229,1.499.909,1.499,1.709,0,1.189-1.079,2.039-2.598,2.039s-2.599-.85-2.599-2.039ZM288.866,88.353c0-.689-.63-1.199-1.499-1.199s-1.5.51-1.5,1.199.63,1.209,1.5,1.209,1.499-.52,1.499-1.209ZM288.656,85.225c0-.62-.56-1.08-1.289-1.08s-1.29.46-1.29,1.08.56,1.089,1.29,1.089,1.289-.47,1.289-1.089Z"/>
    <path d="M290.999,89.562l2.868-2.998c.51-.539.68-.89.68-1.339,0-.58-.54-1.02-1.27-1.02-.649,0-1.149.229-1.819.85l-.62-.75c.77-.709,1.579-1.06,2.458-1.06,1.37,0,2.309.78,2.309,1.919,0,.68-.24,1.17-.99,1.959l-2.229,2.299,3.348-.01v.939h-4.737v-.79Z"/>
    <path d="M296.988,88.922c0-.909.74-1.479,1.939-1.479.479,0,.929.1,1.379.319v-.499c0-.71-.391-1.06-1.18-1.06-.439,0-.909.12-1.509.43l-.43-.819c.77-.38,1.469-.55,2.159-.55,1.319,0,2.079.68,2.079,1.879v3.208h-1.119v-.529c-.45.43-.93.619-1.52.619-1.059,0-1.799-.619-1.799-1.52ZM299.097,89.653c.46,0,.87-.141,1.21-.44v-.789c-.36-.18-.75-.25-1.18-.25-.669,0-1.079.27-1.079.72,0,.47.41.76,1.049.76Z"/>
    <path d="M302.748,89.512l.659-.749c.6.539,1.14.76,1.839.76.89,0,1.489-.55,1.489-1.37,0-.779-.63-1.319-1.519-1.319-.46,0-.89.12-1.38.37l-.77-.229.16-3.618h4.248v.939h-3.289l-.09,2.009c.5-.24.95-.319,1.43-.319,1.389,0,2.318.849,2.318,2.108,0,1.419-1.06,2.369-2.639,2.369-.939,0-1.778-.32-2.458-.95Z"/>
    <path d="M314.035,86.674c0,2.278-1.3,3.788-3.259,3.788-.669,0-1.399-.23-1.858-.6l.6-.81c.399.289.839.43,1.349.43,1.3,0,2.06-1.04,2.079-2.799-.479.659-1.189,1.029-1.929,1.029-1.369,0-2.349-.899-2.349-2.148,0-1.329,1.049-2.309,2.469-2.309,1.719,0,2.898,1.389,2.898,3.418ZM312.896,86.014c-.18-1.099-.83-1.818-1.719-1.818-.82,0-1.43.569-1.43,1.349,0,.76.59,1.31,1.439,1.31.659,0,1.27-.32,1.709-.84Z"/>
    <path d="M316.407,86.245h-1.6v-.899h1.6v-.76c0-1.18.689-1.779,2.028-1.779.39,0,.85.08,1.229.2v.979c-.5-.17-.81-.21-1.199-.21-.63,0-.92.26-.92.949v.62h2.119v.899h-2.119v4.107h-1.139v-4.107Z"/>
    <path d="M326.035,86.674c0,2.278-1.3,3.788-3.259,3.788-.669,0-1.399-.23-1.858-.6l.6-.81c.399.289.839.43,1.349.43,1.3,0,2.06-1.04,2.079-2.799-.479.659-1.189,1.029-1.929,1.029-1.369,0-2.349-.899-2.349-2.148,0-1.329,1.049-2.309,2.469-2.309,1.719,0,2.898,1.389,2.898,3.418ZM324.896,86.014c-.18-1.099-.83-1.818-1.719-1.818-.82,0-1.43.569-1.43,1.349,0,.76.59,1.31,1.439,1.31.659,0,1.27-.32,1.709-.84Z"/>
    <path d="M326.658,89.413l.729-.699c.56.579,1.059.789,1.839.789.909,0,1.529-.47,1.529-1.159,0-.63-.51-1.06-1.25-1.06h-.859v-.92h.77c.68,0,1.119-.409,1.119-1.039s-.579-1.109-1.329-1.109c-.699,0-1.169.22-1.738.83l-.74-.69c.64-.709,1.55-1.109,2.509-1.109,1.39,0,2.389.82,2.389,1.97,0,.739-.529,1.358-1.319,1.589.93.199,1.549.819,1.549,1.609,0,1.188-1.099,2.049-2.608,2.049-1.029,0-1.959-.38-2.588-1.05Z"/>
  </g>
  <g>
    <path d="M284.898,132.412c0-1.469,1.069-2.588,2.479-2.588,1.459,0,2.509,1.089,2.509,2.588v.271h-3.878c.11.81.74,1.399,1.549,1.399.52,0,.979-.21,1.279-.57l.75.67c-.58.579-1.259.829-2.089.829-1.459,0-2.599-1.129-2.599-2.599ZM288.806,131.973c-.13-.729-.68-1.229-1.409-1.229-.7,0-1.229.49-1.379,1.229h2.789Z"/>
    <path d="M296.036,131.233c0,2.278-1.299,3.788-3.258,3.788-.669,0-1.399-.23-1.859-.6l.6-.81c.4.289.839.43,1.349.43,1.299,0,2.059-1.04,2.079-2.799-.48.659-1.189,1.029-1.929,1.029-1.369,0-2.349-.899-2.349-2.148,0-1.329,1.049-2.309,2.469-2.309,1.719,0,2.898,1.389,2.898,3.418ZM294.896,130.573c-.18-1.099-.83-1.818-1.719-1.818-.82,0-1.429.569-1.429,1.349,0,.76.589,1.31,1.439,1.31.66,0,1.27-.32,1.709-.84Z"/>
    <path d="M297.068,133.972h1.769v-4.907l-1.769.76v-.979l2.169-.93h.689v6.057h1.879v.939h-4.737v-.939Z"/>
    <path d="M302.878,132.423c0-1.479,1.139-2.599,2.618-2.599.979,0,1.81.459,2.269,1.169l-.879.609c-.271-.489-.78-.799-1.39-.799-.859,0-1.489.689-1.489,1.619s.63,1.608,1.489,1.608c.609,0,1.119-.31,1.39-.789l.879.6c-.459.71-1.289,1.169-2.269,1.169-1.479,0-2.618-1.119-2.618-2.588Z"/>
    <path d="M308.748,134.071l.659-.749c.6.539,1.14.76,1.839.76.89,0,1.489-.55,1.489-1.37,0-.779-.63-1.319-1.519-1.319-.46,0-.89.12-1.38.37l-.77-.229.16-3.618h4.248v.939h-3.289l-.09,2.009c.5-.24.95-.319,1.43-.319,1.389,0,2.318.849,2.318,2.108,0,1.419-1.06,2.369-2.639,2.369-.939,0-1.778-.32-2.458-.95Z"/>
    <path d="M314.718,131.413c0-2.249,1.079-3.608,2.648-3.608s2.648,1.359,2.648,3.608-1.079,3.608-2.648,3.608-2.648-1.359-2.648-3.608ZM316.097,133.022l2.079-3.938c-.229-.199-.5-.31-.81-.31-.949,0-1.56,1.029-1.56,2.639,0,.64.11,1.189.29,1.609ZM318.926,131.413c0-.64-.11-1.189-.29-1.609l-2.079,3.938c.229.199.5.31.81.31.949,0,1.56-1.029,1.56-2.639Z"/>
    <path d="M320.987,133.481c0-.909.74-1.479,1.939-1.479.479,0,.93.1,1.379.319v-.499c0-.71-.39-1.06-1.18-1.06-.439,0-.909.12-1.509.43l-.43-.819c.77-.38,1.469-.55,2.159-.55,1.319,0,2.078.68,2.078,1.879v3.208h-1.119v-.529c-.449.43-.93.619-1.52.619-1.059,0-1.799-.619-1.799-1.52ZM323.097,134.212c.46,0,.869-.141,1.209-.44v-.789c-.359-.18-.749-.25-1.18-.25-.669,0-1.079.27-1.079.72,0,.47.41.76,1.05.76Z"/>
    <path d="M327.138,127.715l1.129-.189v2.918c.36-.39.83-.609,1.369-.609,1.279,0,2.289,1.129,2.289,2.578s-.999,2.569-2.269,2.569c-.57,0-1.069-.23-1.419-.65v.58h-1.1v-7.196ZM330.806,132.412c0-.959-.58-1.648-1.419-1.648-.44,0-.85.199-1.12.51v2.278c.271.32.67.5,1.12.5.839,0,1.419-.68,1.419-1.64Z"/>
  </g>
  <g>
    <path d="M288.786,192.068h-4.018v-.959h5.197v.829l-3.158,6.167h-1.289l3.268-6.037Z"/>
    <path d="M290.698,194.787c0-2.278,1.299-3.788,3.258-3.788.67,0,1.399.23,1.859.6l-.6.81c-.399-.289-.839-.43-1.349-.43-1.299,0-2.059,1.04-2.079,2.799.479-.66,1.189-1.029,1.929-1.029,1.369,0,2.349.899,2.349,2.148,0,1.329-1.049,2.309-2.469,2.309-1.719,0-2.898-1.389-2.898-3.418ZM291.838,195.447c.18,1.099.83,1.818,1.719,1.818.819,0,1.429-.569,1.429-1.349,0-.76-.59-1.31-1.439-1.31-.66,0-1.269.319-1.709.84Z"/>
    <path d="M297.068,197.166h1.769v-4.907l-1.769.76v-.979l2.169-.93h.689v6.057h1.879v.939h-4.737v-.939Z"/>
    <path d="M302.718,194.607c0-2.249,1.079-3.608,2.648-3.608s2.648,1.359,2.648,3.608-1.079,3.608-2.648,3.608-2.648-1.359-2.648-3.608ZM304.097,196.217l2.079-3.938c-.229-.199-.5-.31-.81-.31-.949,0-1.56,1.029-1.56,2.639,0,.64.11,1.189.29,1.609ZM306.926,194.607c0-.64-.11-1.189-.29-1.609l-2.079,3.938c.229.199.5.31.81.31.949,0,1.56-1.029,1.56-2.639Z"/>
    <path d="M308.897,195.606c0-1.469,1.069-2.588,2.479-2.588,1.46,0,2.509,1.089,2.509,2.588v.271h-3.878c.11.81.74,1.399,1.55,1.399.52,0,.979-.21,1.279-.57l.749.67c-.58.579-1.259.829-2.089.829-1.459,0-2.599-1.129-2.599-2.599ZM312.806,195.167c-.13-.729-.68-1.229-1.409-1.229-.7,0-1.229.49-1.38,1.229h2.789Z"/>
    <path d="M314.987,196.676c0-.909.74-1.479,1.939-1.479.479,0,.93.1,1.379.319v-.499c0-.71-.39-1.06-1.18-1.06-.439,0-.909.12-1.509.43l-.43-.819c.77-.38,1.469-.55,2.159-.55,1.319,0,2.078.68,2.078,1.879v3.208h-1.119v-.529c-.449.43-.93.619-1.52.619-1.059,0-1.799-.619-1.799-1.52ZM317.097,197.406c.46,0,.869-.141,1.209-.44v-.789c-.359-.18-.749-.25-1.18-.25-.669,0-1.079.27-1.079.72,0,.47.41.76,1.05.76Z"/>
    <path d="M326.035,194.428c0,2.278-1.3,3.788-3.259,3.788-.669,0-1.399-.23-1.858-.6l.6-.81c.399.289.839.43,1.349.43,1.3,0,2.06-1.04,2.079-2.799-.479.659-1.189,1.029-1.929,1.029-1.369,0-2.349-.899-2.349-2.148,0-1.329,1.049-2.309,2.469-2.309,1.719,0,2.898,1.389,2.898,3.418ZM324.896,193.768c-.18-1.099-.83-1.818-1.719-1.818-.82,0-1.43.569-1.43,1.349,0,.76.59,1.31,1.439,1.31.659,0,1.27-.32,1.709-.84Z"/>
    <path d="M327.067,197.166h1.77v-4.907l-1.77.76v-.979l2.169-.93h.689v6.057h1.879v.939h-4.737v-.939Z"/>
  </g>
  <g>
    <path d="M416.687,127.915h1.389l2.709,6.996h-1.29l-.719-1.959h-2.869l-.72,1.959h-1.249l2.749-6.996ZM418.445,132.013l-1.1-2.958-1.089,2.958h2.188Z"/>
    <path d="M421.098,132.412c0-1.429,1.029-2.548,2.339-2.548.569,0,1.089.229,1.459.649v-2.769l1.129-.2v7.366h-1.119v-.659c-.359.449-.919.709-1.549.709-1.27,0-2.259-1.129-2.259-2.549ZM424.896,133.462v-2.108c-.29-.34-.72-.54-1.189-.54-.859,0-1.499.68-1.499,1.599,0,.91.64,1.6,1.499,1.6.489,0,.899-.19,1.189-.55Z"/>
    <path d="M427.197,132.412c0-1.429,1.029-2.548,2.339-2.548.569,0,1.09.229,1.459.649v-2.769l1.13-.2v7.366h-1.119v-.659c-.36.449-.92.709-1.55.709-1.27,0-2.259-1.129-2.259-2.549ZM430.995,133.462v-2.108c-.289-.34-.72-.54-1.189-.54-.859,0-1.499.68-1.499,1.599,0,.91.64,1.6,1.499,1.6.49,0,.9-.19,1.189-.55Z"/>
    <path d="M433.387,128.195c0-.38.311-.7.7-.7.38,0,.699.32.699.7s-.319.689-.699.689c-.39,0-.7-.311-.7-.689ZM433.517,129.904h1.13v5.007h-1.13v-5.007Z"/>
    <path d="M436.047,129.904h1.13v.819c.38-.59.929-.899,1.579-.899,1.029,0,1.749.729,1.749,1.789v3.298h-1.14v-2.979c0-.729-.43-1.199-1.1-1.199-.46,0-.829.21-1.089.609v3.568h-1.13v-5.007Z"/>
    <path d="M442.196,136.61l.391-.83c.589.29,1.069.42,1.568.42.84,0,1.279-.38,1.279-1.109v-.85c-.359.44-.909.7-1.539.7-1.27,0-2.259-1.13-2.259-2.549s1.029-2.528,2.339-2.528c.58,0,1.1.229,1.47.669v-.629h1.119v5.187c0,1.289-.84,2.009-2.358,2.009-.72,0-1.42-.18-2.01-.489ZM445.435,133.452v-2.099c-.289-.34-.72-.54-1.189-.54-.859,0-1.499.67-1.499,1.589,0,.91.64,1.6,1.499,1.6.49,0,.9-.2,1.189-.55Z"/>
    <path d="M450.887,130.804h-1.08v-.899h1.08v-.86c0-1.089.609-1.679,1.729-1.679.28,0,.56.03.75.09v.96c-.25-.051-.4-.07-.6-.07-.521,0-.75.229-.75.72v.84h1.35v.899h-1.35v4.107h-1.129v-4.107Z"/>
    <path d="M453.887,132.412c0-1.469,1.06-2.588,2.438-2.588,1.37,0,2.369,1.089,2.369,2.588v.271h-3.698c.11.81.72,1.399,1.499,1.399.47,0,.91-.181,1.189-.47l.74.669c-.61.51-1.22.729-1.979.729-1.438,0-2.559-1.129-2.559-2.599ZM457.625,131.982c-.12-.729-.64-1.239-1.31-1.239-.68,0-1.179.49-1.309,1.239h2.618Z"/>
    <path d="M459.537,133.472c0-.899.739-1.469,1.919-1.469.47,0,.909.1,1.35.319v-.56c0-.659-.38-.999-1.149-.999-.42,0-.88.12-1.459.39l-.4-.819c.75-.34,1.409-.51,2.079-.51,1.31,0,2.049.659,2.049,1.818v3.269h-1.119v-.52c-.43.42-.91.609-1.489.609-1.05,0-1.779-.63-1.779-1.529ZM461.626,134.201c.45,0,.84-.13,1.18-.419v-.81c-.36-.17-.72-.24-1.149-.24-.649,0-1.06.27-1.06.72,0,.46.399.749,1.029.749Z"/>
    <path d="M465.767,133.612v-2.809h-1v-.899h1v-1.38l1.129-.239v1.619h1.39v.899h-1.39v2.559c0,.489.19.68.7.68.22,0,.379-.03.68-.12v.949c-.29.09-.67.14-.97.14-1.01,0-1.539-.479-1.539-1.398Z"/>
    <path d="M469.247,133.202v-3.298h1.139v2.968c0,.74.431,1.21,1.1,1.21.45,0,.83-.2,1.09-.601v-3.577h1.129v5.007h-1.129v-.81c-.38.59-.92.89-1.589.89-1.02,0-1.739-.739-1.739-1.789Z"/>
    <path d="M475.106,129.904h1.13v1.079c.279-.76.759-1.17,1.379-1.17.189.011.319.03.489.101v.989c-.18-.07-.409-.12-.619-.12-.55,0-.999.31-1.249.83v3.298h-1.13v-5.007Z"/>
    <path d="M478.576,132.412c0-1.469,1.06-2.588,2.438-2.588,1.37,0,2.369,1.089,2.369,2.588v.271h-3.698c.11.81.72,1.399,1.499,1.399.47,0,.91-.181,1.189-.47l.74.669c-.61.51-1.22.729-1.979.729-1.438,0-2.559-1.129-2.559-2.599ZM482.314,131.982c-.12-.729-.64-1.239-1.31-1.239-.68,0-1.179.49-1.309,1.239h2.618Z"/>
  </g>
  <g>
    <path d="M414.577,195.107v-3.998h1.199v3.998c0,1.229.68,2.028,1.739,2.028s1.739-.799,1.739-2.028v-3.998h1.199v3.998c0,1.908-1.14,3.108-2.938,3.108s-2.938-1.2-2.938-3.108Z"/>
    <path d="M421.857,193.099h1.109v.709c.359-.47.919-.749,1.559-.749,1.27,0,2.259,1.129,2.259,2.548,0,1.43-1.02,2.549-2.328,2.549-.59,0-1.109-.22-1.47-.64v2.679h-1.129v-7.096ZM425.675,195.606c0-.909-.64-1.599-1.489-1.599-.499,0-.909.2-1.199.56v2.089c.29.35.72.56,1.199.56.859,0,1.489-.689,1.489-1.609Z"/>
    <path d="M427.737,195.606c0-1.429,1.029-2.548,2.339-2.548.569,0,1.089.229,1.459.649v-2.769l1.129-.2v7.366h-1.119v-.659c-.359.449-.919.709-1.549.709-1.27,0-2.259-1.129-2.259-2.549ZM431.535,196.656v-2.108c-.29-.34-.72-.54-1.189-.54-.859,0-1.499.68-1.499,1.599,0,.91.64,1.6,1.499,1.6.489,0,.899-.19,1.189-.55Z"/>
    <path d="M433.808,196.666c0-.899.739-1.469,1.919-1.469.47,0,.909.1,1.349.319v-.56c0-.659-.38-.999-1.149-.999-.42,0-.879.12-1.459.39l-.399-.819c.749-.34,1.409-.51,2.078-.51,1.31,0,2.049.659,2.049,1.818v3.269h-1.119v-.52c-.43.42-.909.609-1.489.609-1.049,0-1.778-.63-1.778-1.529ZM435.896,197.396c.449,0,.839-.13,1.179-.419v-.81c-.359-.17-.72-.24-1.149-.24-.649,0-1.06.27-1.06.72,0,.46.4.749,1.03.749Z"/>
    <path d="M440.037,196.807v-2.809h-1v-.899h1v-1.38l1.129-.239v1.619h1.39v.899h-1.39v2.559c0,.489.19.68.7.68.22,0,.379-.03.68-.12v.949c-.29.09-.67.14-.97.14-1.01,0-1.539-.479-1.539-1.398Z"/>
    <path d="M443.417,191.39c0-.38.31-.7.699-.7.38,0,.7.32.7.7s-.32.689-.7.689c-.39,0-.699-.311-.699-.689ZM443.547,193.099h1.129v5.007h-1.129v-5.007Z"/>
    <path d="M446.077,193.099h1.129v.819c.38-.59.93-.899,1.579-.899,1.029,0,1.749.729,1.749,1.789v3.298h-1.14v-2.979c0-.729-.43-1.199-1.099-1.199-.46,0-.83.21-1.09.609v3.568h-1.129v-5.007Z"/>
    <path d="M452.227,199.805l.39-.83c.59.29,1.069.42,1.569.42.84,0,1.279-.38,1.279-1.109v-.85c-.36.44-.909.7-1.539.7-1.27,0-2.259-1.13-2.259-2.549s1.029-2.528,2.339-2.528c.579,0,1.099.229,1.469.669v-.629h1.119v5.187c0,1.289-.839,2.009-2.358,2.009-.72,0-1.419-.18-2.009-.489ZM455.465,196.646v-2.099c-.29-.34-.72-.54-1.189-.54-.859,0-1.499.67-1.499,1.589,0,.91.64,1.6,1.499,1.6.489,0,.899-.2,1.189-.55Z"/>
    <path d="M460.007,195.606c0-1.429,1.029-2.548,2.339-2.548.569,0,1.089.229,1.459.649v-2.769l1.129-.2v7.366h-1.119v-.659c-.359.449-.919.709-1.549.709-1.27,0-2.259-1.129-2.259-2.549ZM463.805,196.656v-2.108c-.29-.34-.72-.54-1.189-.54-.859,0-1.499.68-1.499,1.599,0,.91.64,1.6,1.499,1.6.489,0,.899-.19,1.189-.55Z"/>
    <path d="M466.106,195.606c0-1.469,1.06-2.588,2.438-2.588,1.369,0,2.369,1.089,2.369,2.588v.271h-3.698c.109.81.72,1.399,1.499,1.399.47,0,.909-.181,1.189-.47l.739.669c-.609.51-1.219.729-1.979.729-1.439,0-2.559-1.129-2.559-2.599ZM469.844,195.177c-.119-.729-.64-1.239-1.309-1.239-.68,0-1.18.49-1.31,1.239h2.618Z"/>
    <path d="M472.066,193.099h1.109v.709c.36-.47.92-.749,1.56-.749,1.27,0,2.259,1.129,2.259,2.548,0,1.43-1.02,2.549-2.329,2.549-.59,0-1.109-.22-1.469-.64v2.679h-1.13v-7.096ZM475.885,195.606c0-.909-.64-1.599-1.489-1.599-.5,0-.91.2-1.199.56v2.089c.289.35.72.56,1.199.56.859,0,1.489-.689,1.489-1.609Z"/>
    <path d="M477.946,195.606c0-1.469,1.06-2.588,2.438-2.588,1.37,0,2.369,1.089,2.369,2.588v.271h-3.698c.11.81.72,1.399,1.499,1.399.47,0,.91-.181,1.189-.47l.74.669c-.61.51-1.22.729-1.979.729-1.438,0-2.559-1.129-2.559-2.599ZM481.685,195.177c-.12-.729-.64-1.239-1.31-1.239-.68,0-1.179.49-1.309,1.239h2.618Z"/>
    <path d="M483.906,193.099h1.13v.819c.38-.59.929-.899,1.579-.899,1.029,0,1.749.729,1.749,1.789v3.298h-1.14v-2.979c0-.729-.43-1.199-1.1-1.199-.46,0-.829.21-1.089.609v3.568h-1.13v-5.007Z"/>
    <path d="M489.496,195.606c0-1.429,1.029-2.548,2.339-2.548.569,0,1.09.229,1.459.649v-2.769l1.13-.2v7.366h-1.119v-.659c-.36.449-.92.709-1.55.709-1.27,0-2.259-1.129-2.259-2.549ZM493.294,196.656v-2.108c-.289-.34-.72-.54-1.189-.54-.859,0-1.499.68-1.499,1.599,0,.91.64,1.6,1.499,1.6.49,0,.9-.19,1.189-.55Z"/>
    <path d="M495.596,195.606c0-1.469,1.06-2.588,2.438-2.588,1.37,0,2.369,1.089,2.369,2.588v.271h-3.698c.11.81.72,1.399,1.499,1.399.47,0,.91-.181,1.189-.47l.74.669c-.61.51-1.22.729-1.979.729-1.438,0-2.559-1.129-2.559-2.599ZM499.334,195.177c-.12-.729-.64-1.239-1.31-1.239-.68,0-1.179.49-1.309,1.239h2.618Z"/>
    <path d="M501.556,193.099h1.13v.819c.38-.59.929-.899,1.579-.899,1.029,0,1.749.729,1.749,1.789v3.298h-1.14v-2.979c0-.729-.43-1.199-1.1-1.199-.46,0-.829.21-1.089.609v3.568h-1.13v-5.007Z"/>
    <path d="M507.146,195.606c0-1.449,1.1-2.588,2.529-2.588.779,0,1.499.31,1.998.85l-.699.729c-.35-.39-.779-.59-1.259-.59-.81,0-1.439.699-1.439,1.599,0,.91.63,1.6,1.439,1.6.479,0,.909-.2,1.259-.58l.699.72c-.499.54-1.219.85-1.998.85-1.43,0-2.529-1.129-2.529-2.589Z"/>
    <path d="M512.466,191.39c0-.38.31-.7.699-.7.38,0,.7.32.7.7s-.32.689-.7.689c-.39,0-.699-.311-.699-.689ZM512.596,193.099h1.129v5.007h-1.129v-5.007Z"/>
    <path d="M514.896,195.606c0-1.469,1.06-2.588,2.438-2.588,1.37,0,2.369,1.089,2.369,2.588v.271h-3.698c.11.81.72,1.399,1.499,1.399.47,0,.91-.181,1.189-.47l.74.669c-.61.51-1.22.729-1.979.729-1.438,0-2.559-1.129-2.559-2.599ZM518.634,195.177c-.12-.729-.64-1.239-1.31-1.239-.68,0-1.179.49-1.309,1.239h2.618Z"/>
    <path d="M520.456,197.525l.529-.749c.66.409,1.1.569,1.609.569.6,0,1.009-.279,1.009-.68,0-.31-.209-.47-.699-.569l-.88-.15c-.979-.18-1.449-.629-1.449-1.379,0-.939.77-1.549,1.939-1.549.699,0,1.329.199,1.969.6l-.529.749c-.51-.329-1-.479-1.51-.479-.52,0-.859.22-.859.58,0,.319.18.459.7.55l.889.17c1,.18,1.479.64,1.479,1.389,0,.92-.88,1.629-2.049,1.629-.859,0-1.619-.239-2.148-.68Z"/>
  </g>
  <g>
    <path d="M414.317,32.538c0-1.661,1.276-2.938,2.938-2.938.936,0,1.794.374,2.365,1.045l-1.089,1.089c-.363-.429-.726-.616-1.21-.616-.704,0-1.232.605-1.232,1.42s.528,1.419,1.232,1.419c.484,0,.847-.188,1.21-.616l1.089,1.089c-.571.672-1.43,1.046-2.365,1.046-1.661,0-2.938-1.276-2.938-2.938Z"/>
    <path d="M420.081,32.538c0-1.673,1.276-2.938,2.96-2.938s2.959,1.265,2.959,2.938-1.276,2.938-2.959,2.938-2.96-1.266-2.96-2.938ZM424.262,32.538c0-.848-.506-1.452-1.221-1.452s-1.222.604-1.222,1.452.507,1.452,1.222,1.452,1.221-.605,1.221-1.452Z"/>
    <path d="M427.133,29.688h1.782v.902c.418-.649.99-.99,1.684-.99.736,0,1.32.407,1.595,1.056.44-.682,1.078-1.056,1.859-1.056,1.045,0,1.782.825,1.782,1.991v3.773h-1.782v-3.422c0-.571-.341-.945-.847-.945-.33,0-.595.132-.825.429v3.938h-1.782v-3.422c0-.571-.342-.945-.848-.945-.33,0-.604.143-.836.439v3.928h-1.782v-5.677Z"/>
    <path d="M437.176,29.688h1.782v.902c.418-.649.99-.99,1.684-.99.736,0,1.32.407,1.595,1.056.44-.682,1.078-1.056,1.859-1.056,1.045,0,1.782.825,1.782,1.991v3.773h-1.782v-3.422c0-.571-.341-.945-.847-.945-.33,0-.595.132-.825.429v3.938h-1.782v-3.422c0-.571-.342-.945-.848-.945-.33,0-.604.143-.836.439v3.928h-1.782v-5.677Z"/>
    <path d="M447.108,27.818c0-.55.451-1.001,1.001-1.001s1.001.451,1.001,1.001-.451,1.001-1.001,1.001-1.001-.451-1.001-1.001ZM447.218,29.688h1.783v5.677h-1.783v-5.677Z"/>
    <path d="M451.135,33.649v-2.586h-1.101v-1.375h1.101v-1.573l1.782-.363v1.937h1.518v1.375h-1.518v2.233c0,.506.197.683.748.683.209,0,.374-.022.726-.121v1.44c-.33.1-.858.177-1.221.177-1.343,0-2.035-.616-2.035-1.826Z"/>
    <path d="M457.789,29.688h1.783v.902c.418-.649.989-.99,1.683-.99.737,0,1.32.407,1.596,1.056.439-.682,1.078-1.056,1.859-1.056,1.045,0,1.782.825,1.782,1.991v3.773h-1.782v-3.422c0-.571-.342-.945-.848-.945-.33,0-.594.132-.825.429v3.938h-1.782v-3.422c0-.571-.341-.945-.847-.945-.33,0-.605.143-.836.439v3.928h-1.783v-5.677Z"/>
    <path d="M467.579,32.538c0-1.661,1.232-2.938,2.86-2.938,1.64,0,2.794,1.243,2.794,3.003v.386h-3.905c.165.638.683,1.066,1.331,1.066.474,0,.869-.165,1.122-.473l1.178.979c-.737.648-1.431.913-2.388.913-1.672,0-2.992-1.287-2.992-2.938ZM471.584,31.976c-.154-.604-.584-.99-1.155-.99-.562,0-.957.363-1.101.99h2.256Z"/>
    <path d="M473.937,34.782l.781-1.188c.814.43,1.276.572,1.826.572.507,0,.814-.176.814-.462,0-.22-.165-.341-.528-.407l-1.089-.198c-1.101-.209-1.672-.77-1.672-1.65,0-1.154.891-1.848,2.376-1.848.792,0,1.573.22,2.311.648l-.814,1.134c-.572-.33-1.101-.484-1.628-.484-.43,0-.683.144-.683.385,0,.231.144.33.583.407l1.067.198c1.122.209,1.705.781,1.705,1.64,0,1.11-1.045,1.947-2.442,1.947-1.034,0-1.947-.242-2.607-.693Z"/>
    <path d="M479.558,34.782l.781-1.188c.814.43,1.276.572,1.826.572.507,0,.814-.176.814-.462,0-.22-.165-.341-.528-.407l-1.089-.198c-1.101-.209-1.672-.77-1.672-1.65,0-1.154.891-1.848,2.376-1.848.792,0,1.573.22,2.311.648l-.814,1.134c-.572-.33-1.101-.484-1.628-.484-.43,0-.683.144-.683.385,0,.231.144.33.583.407l1.067.198c1.122.209,1.705.781,1.705,1.64,0,1.11-1.045,1.947-2.442,1.947-1.034,0-1.947-.242-2.607-.693Z"/>
    <path d="M485.432,33.737c0-1.046.814-1.65,2.212-1.65.406,0,.813.077,1.319.264v-.462c0-.55-.362-.825-1.122-.825-.429,0-.935.121-1.595.396l-.616-1.243c.935-.418,1.771-.616,2.607-.616,1.573,0,2.486.781,2.486,2.134v3.631h-1.761v-.495c-.495.418-.968.583-1.573.583-1.154,0-1.958-.704-1.958-1.716ZM487.94,34.276c.374,0,.715-.1,1.022-.286v-.727c-.33-.077-.648-.121-.979-.121-.583,0-.913.198-.913.562s.318.572.869.572Z"/>
    <path d="M492.395,37.268l.55-1.287c.627.297,1.188.439,1.738.439.848,0,1.287-.352,1.287-1.045v-.77c-.374.462-.99.748-1.65.748-1.396,0-2.508-1.276-2.508-2.86s1.166-2.839,2.641-2.839c.604,0,1.155.253,1.54.715v-.682h1.749v5.71c0,1.529-1.056,2.376-2.992,2.376-.858,0-1.673-.176-2.354-.506ZM495.97,33.451v-1.893c-.274-.286-.648-.44-1.056-.44-.781,0-1.354.584-1.354,1.387s.583,1.397,1.354,1.397c.429,0,.781-.154,1.056-.451Z"/>
    <path d="M498.873,32.538c0-1.661,1.232-2.938,2.86-2.938,1.64,0,2.795,1.243,2.795,3.003v.386h-3.905c.165.638.682,1.066,1.331,1.066.473,0,.869-.165,1.122-.473l1.177.979c-.737.648-1.43.913-2.387.913-1.673,0-2.993-1.287-2.993-2.938ZM502.878,31.976c-.154-.604-.583-.99-1.155-.99-.561,0-.957.363-1.1.99h2.255Z"/>
  </g>
  <circle class="uuid-de08627d-3e5d-4c6a-bcba-7385626f468b" cx="92.595" cy="132.141" r="7.472"/>
  <circle class="uuid-2b2346f3-0c36-4eaa-99d0-f933a3e397ff" cx="207.664" cy="87.667" r="7.472"/>
  <circle class="uuid-de08627d-3e5d-4c6a-bcba-7385626f468b" cx="92.595" cy="195.335" r="7.472"/>
  <g>
    <line class="uuid-b2f590ea-6f16-4bdc-bb95-109129152a75" x1="208.228" y1="42.77" x2="208.228" y2="72.255"/>
    <polygon points="204.488 71.161 208.228 77.637 211.968 71.161 204.488 71.161"/>
  </g>
  <g>
    <line class="uuid-b2f590ea-6f16-4bdc-bb95-109129152a75" x1="92.239" y1="141.68" x2="92.239" y2="180.981"/>
    <polygon points="88.499 179.886 92.239 186.363 95.979 179.886 88.499 179.886"/>
  </g>
  <g>
    <line class="uuid-b2f590ea-6f16-4bdc-bb95-109129152a75" x1="199.208" y1="90.571" x2="107.225" y2="125.94"/>
    <polygon points="106.904 122.057 102.201 127.872 109.589 129.038 106.904 122.057"/>
  </g>
  <rect class="uuid-930934fc-1eba-4013-a3fb-a59d64282e38" x="32.911" y="189.241" width="44.566" height="19.213"/>
  <g>
    <path d="M41.789,194.621h1.199v2.938h3.478v-2.938h1.2v6.996h-1.2v-2.988h-3.478v2.988h-1.199v-6.996Z"/>
    <path d="M49.299,194.621h5.007v1.02h-3.808v1.949h2.658v.999h-2.658v2.009h3.848v1.02h-5.047v-6.996Z"/>
    <path d="M57.808,194.621h1.389l2.708,6.996h-1.29l-.719-1.959h-2.869l-.72,1.959h-1.249l2.749-6.996ZM59.566,198.719l-1.099-2.958-1.089,2.958h2.188Z"/>
    <path d="M62.809,194.621h2.559c2.009,0,3.508,1.529,3.508,3.498s-1.499,3.498-3.508,3.498h-2.559v-6.996ZM65.397,200.578c1.259,0,2.249-1.069,2.249-2.459s-.989-2.459-2.249-2.459h-1.389v4.918h1.389Z"/>
  </g>
</svg>